# xmcd
#
# Track frame offsets: 
#        150
#        19124
#        34728
#        53327
#        69235
#        84684
#        97811
#        114595
#        130419
#        147143
#        161047
#        175446
#        194581
#        208230
#        221317
#        237189
#        252014
#        265513
#        285087
#
# Disc length: 3989 seconds
#
# Revision: 0
# Processed by: cddbd v1.5.2PL0 Copyright (c) Steve Scherf et al.
# Submitted via: ExactAudioCopy v1.1
#
DISCID=030f9313
DTITLE=Sara Storer - Calling Me Home cd 2
DYEAR=1900
DGENRE=Country
TTITLE0=Lovely Valentine 
TTITLE1=Mallee Girl 
TTITLE2=Darwin Love 
TTITLE3=Molly Green (2010 version)
TTITLE4=Important Things 
TTITLE5=Dungarees 
TTITLE6=Star (2010 version) 
TTITLE7=Christmas in the Country (Jimmy's Christmas)
TTITLE8=One Perfect Day
TTITLE9=Boss Drovers Pride (live at TRECC) 
TTITLE10=When I Was a Boy 
TTITLE11=Won't Give In 
TTITLE12=Must Have Been a Hell of a Party
TTITLE13=Since I've Gone (live at TRECC)
TTITLE14=Chillers Bend 
TTITLE15=Moonstruck 
TTITLE16=Night After Night 
TTITLE17=Sweet Dreams 
TTITLE18=Early Love
EXTD=
EXTT0=
EXTT1=
EXTT2=
EXTT3=
EXTT4=
EXTT5=
EXTT6=
EXTT7=
EXTT8=
EXTT9=
EXTT10=
EXTT11=
EXTT12=
EXTT13=
EXTT14=
EXTT15=
EXTT16=
EXTT17=
EXTT18=
PLAYORDER=
